<?xml version="1.0" encoding="utf-8"?>
<!-- Generator: Adobe Illustrator 24.2.0, SVG Export Plug-In . SVG Version: 6.00 Build 0)  -->
<svg version="1.1" id="Livello_1" xmlns="http://www.w3.org/2000/svg" xmlns:xlink="http://www.w3.org/1999/xlink" x="0px" y="0px"
	 viewBox="0 0 200 70" style="enable-background:new 0 0 200 70;" xml:space="preserve">
<style type="text/css">
	.st0{clip-path:url(#SVGID_2_);}
</style>
<g>
	<g>
		<defs>
			<rect id="SVGID_1_" y="0.2" width="200" height="69.4"/>
		</defs>
		<clipPath id="SVGID_2_">
			<use xlink:href="#SVGID_1_"  style="overflow:visible;"/>
		</clipPath>
		<path class="st0" d="M75.09,47.08h17.99c0,4.63,5.42,7.13,9.93,7.13c4.15,0,9.08-2.23,9.08-5.77c0-4.07-5.59-5.25-12.43-6.74
			c-10.39-2.33-24.56-5.2-24.56-19.96C75.1,8.97,87.72,0.2,104.67,0.2c17.23,0,28.13,9.43,28.13,22.62h-18.07
			c0-4.1-4.96-6.99-10.06-6.99c-4.73,0-9.09,2.35-9.09,5.37c0,3.68,6.04,4.9,12.81,6.43c10.58,2.46,24.41,5.65,24.41,20.45
			c0,14.16-13.03,21.51-29.72,21.51C85.48,69.6,75.09,61.21,75.09,47.08"/>
	</g>
	<polygon points="27.33,2.57 0,67.23 18.71,67.23 23.3,55.76 48.05,55.76 52.73,67.23 71.81,67.23 44.48,2.57 	"/>
	<polygon points="182.11,2.62 182.11,26.78 159.15,26.78 159.15,2.62 141.26,2.62 141.26,67.18 159.15,67.18 159.15,42.65 
		182.11,42.65 182.11,67.18 200,67.18 200,2.62 	"/>
</g>
</svg>
