<?xml version="1.0" encoding="utf-8"?>
<!-- Generator: Adobe Illustrator 24.2.0, SVG Export Plug-In . SVG Version: 6.00 Build 0)  -->
<svg version="1.1" id="Livello_1" xmlns="http://www.w3.org/2000/svg" xmlns:xlink="http://www.w3.org/1999/xlink" x="0px" y="0px"
	 viewBox="0 0 228 142" style="enable-background:new 0 0 228 142;" xml:space="preserve">
<style type="text/css">
	.st0{clip-path:url(#SVGID_2_);fill:#1D1D1B;}
	.st1{clip-path:url(#SVGID_2_);fill:#010101;}
</style>
<g>
	<g>
		<defs>
			<rect id="SVGID_1_" x="10.39" y="13" width="207.21" height="116"/>
		</defs>
		<clipPath id="SVGID_2_">
			<use xlink:href="#SVGID_1_"  style="overflow:visible;"/>
		</clipPath>
		<path class="st0" d="M182.41,53.7c-0.87,0-1.56-0.28-2.07-0.83c-0.51-0.55-0.77-1.26-0.77-2.13v-3.55c0-0.24,0.1-0.47,0.3-0.71
			c0.2-0.24,0.45-0.35,0.77-0.35c0.24,0,0.45,0.12,0.65,0.35c0.2,0.24,0.29,0.47,0.29,0.71v3.55c0,0.32,0.1,0.53,0.3,0.65
			c0.2,0.12,0.41,0.2,0.65,0.24c0.24,0.04,0.45,0.14,0.65,0.29c0.2,0.16,0.3,0.4,0.3,0.71C183.48,53.35,183.12,53.7,182.41,53.7
			 M186.2,21.4h-29.93c-2.29,0-4.26,0.85-5.92,2.55c-1.66,1.7-2.48,3.74-2.48,6.11v38.67c0,0.71-0.32,1.07-0.95,1.07
			c-0.71,0-1.07-0.35-1.07-1.07V30.16c0-3,0.99-5.54,2.96-7.63c1.97-2.09,4.46-3.14,7.45-3.14h29.93c0.63,0,0.95,0.34,0.95,1.01
			C187.15,21.07,186.83,21.4,186.2,21.4 M193.42,64.47h-17.04c-0.47,0-0.73,0.28-0.77,0.83c-0.04,0.55-0.04,1.17,0,1.83
			c0.04,0.67,0.02,1.28-0.06,1.84c-0.08,0.55-0.4,0.83-0.95,0.83c-0.79,0-1.18-0.35-1.18-1.07v-3.31c0-0.87,0.28-1.58,0.83-2.13
			c0.55-0.55,1.26-0.83,2.13-0.83h17.04c0.79,0,1.18,0.32,1.18,0.95C194.6,64.12,194.2,64.47,193.42,64.47 M202.64,65.42
			c0-1.5-0.49-2.74-1.48-3.73c-0.99-0.99-2.19-1.48-3.61-1.48h-21.18c-1.42,0-2.62,0.49-3.61,1.48c-0.99,0.99-1.48,2.23-1.48,3.73
			c0,0.87-0.02,1.8-0.06,2.78c-0.04,0.99,0.06,1.89,0.3,2.72c0.24,0.83,0.65,1.54,1.24,2.13c0.59,0.59,1.52,0.89,2.78,0.89h1.89
			v3.55l-8.64,0V47.19h8.64v3.55c0,1.42,0.49,2.64,1.48,3.67c0.99,1.02,2.15,1.54,3.49,1.54h15.14c1.42,0,2.62-0.51,3.61-1.54
			c0.99-1.02,1.48-2.25,1.48-3.67V30.16c0-1.73-0.34-3.39-1.01-4.97c-0.67-1.58-1.58-2.96-2.73-4.14c-1.15-1.18-2.49-2.11-4.03-2.78
			c-1.54-0.67-3.18-1.01-4.92-1.01h-33.67c-1.74,0-3.38,0.34-4.92,1.01c-1.54,0.67-2.89,1.58-4.03,2.72
			c-1.15,1.14-2.06,2.51-2.73,4.08c-0.67,1.58-1.01,3.27-1.01,5.09v47.21c0,1.82,0.34,3.51,1.01,5.09c0.67,1.58,1.58,2.94,2.73,4.08
			c1.15,1.14,2.49,2.05,4.03,2.72c1.54,0.67,3.18,1,4.92,1h33.67c1.74,0,3.38-0.33,4.92-1c1.54-0.67,2.89-1.6,4.03-2.78
			c1.15-1.18,2.05-2.54,2.73-4.08c0.67-1.54,1.01-3.21,1.01-5.03V65.42z M176.38,58.08h5.44c-1.81-0.16-3.33-0.95-4.55-2.37
			c-1.22-1.42-1.83-3.08-1.83-4.97v-1.42h-4.38v11.12C172.39,58.87,174.17,58.08,176.38,58.08 M203.59,83.22
			c-0.79,1.85-1.85,3.45-3.19,4.79c-1.34,1.34-2.9,2.41-4.67,3.19c-1.78,0.79-3.69,1.18-5.74,1.18h-33.6
			c-2.05,0-3.96-0.39-5.74-1.18c-1.78-0.79-3.33-1.85-4.67-3.19c-1.34-1.34-2.39-2.92-3.13-4.73c-0.75-1.81-1.12-3.79-1.12-5.92
			V30.16c0-2.13,0.37-4.1,1.12-5.92c0.75-1.81,1.79-3.39,3.13-4.73c1.34-1.34,2.9-2.41,4.67-3.19c1.78-0.79,3.69-1.18,5.74-1.18
			h33.6c2.05,0,3.96,0.4,5.74,1.18c1.77,0.79,3.33,1.87,4.67,3.25c1.34,1.38,2.41,2.98,3.19,4.79c0.79,1.82,1.18,3.75,1.18,5.8
			v20.59c0,1.89-0.65,3.55-1.95,4.97c-1.3,1.42-2.86,2.21-4.67,2.37c1.81,0.16,3.37,0.93,4.67,2.31c1.3,1.38,1.95,3.06,1.95,5.03
			v11.95C204.77,79.42,204.38,81.37,203.59,83.22 M206.79,65.42c0-3-1.14-5.44-3.43-7.34c2.29-1.89,3.43-4.34,3.43-7.34V30.16
			c0-2.37-0.44-4.59-1.3-6.68c-0.87-2.09-2.07-3.91-3.61-5.44c-1.54-1.54-3.33-2.76-5.38-3.67c-2.05-0.9-4.22-1.36-6.51-1.36h-33.6
			c-2.37,0-4.56,0.46-6.57,1.36c-2.01,0.91-3.79,2.13-5.33,3.67c-1.54,1.54-2.74,3.35-3.61,5.44c-0.87,2.09-1.3,4.32-1.3,6.68v47.21
			c0,2.37,0.43,4.6,1.3,6.68c0.87,2.09,2.07,3.91,3.61,5.44c1.54,1.54,3.31,2.76,5.33,3.67c2.01,0.91,4.2,1.36,6.57,1.36h33.6
			c2.29,0,4.46-0.45,6.51-1.36c2.05-0.9,3.85-2.13,5.38-3.67c1.54-1.54,2.74-3.35,3.61-5.44c0.87-2.09,1.3-4.32,1.3-6.68V65.42z
			 M173.07,51.45h0.24c0.16,1.82,0.67,3.35,1.54,4.61c-0.79,0.16-1.38,0.32-1.77,0.47V51.45z M180.99,55.6
			c0.08,0.08,0.24,0.12,0.47,0.12C181.23,55.71,181.07,55.67,180.99,55.6"/>
		<path class="st0" d="M52.4,60.33c0,0.24-0.13,0.47-0.38,0.71s-0.5,0.35-0.75,0.35c-0.25,0-0.5-0.12-0.75-0.35
			s-0.37-0.47-0.37-0.71V49.44h-6.74c-0.63,0-0.95-0.35-0.95-1.07c0-0.24,0.1-0.47,0.3-0.71c0.2-0.24,0.42-0.35,0.66-0.35h8.98
			V60.33z M52.4,38.79c0,0.71-0.38,1.07-1.12,1.07c-0.25,0-0.5-0.12-0.75-0.35c-0.25-0.24-0.37-0.47-0.37-0.71V28.03h-6.74
			c-0.63,0-0.95-0.35-0.95-1.07c0-0.24,0.08-0.49,0.24-0.77c0.16-0.28,0.4-0.41,0.72-0.41h8.98V38.79z M44,30.04
			c2.29,0,4.14,1.85,4.14,4.14v0.47c0,2.29-1.85,4.14-4.14,4.14c-2.29,0-4.14-1.85-4.14-4.14v-0.47
			C39.86,31.89,41.71,30.04,44,30.04 M39.74,55.95c0-2.42,1.88-4.38,4.2-4.38c2.32,0,4.2,1.96,4.2,4.38c0,2.42-1.88,4.38-4.2,4.38
			C41.62,60.33,39.74,58.37,39.74,55.95 M39.27,86c0.23,0,0.45,0.12,0.65,0.35c0.2,0.24,0.29,0.47,0.29,0.71
			c0,0.71-0.32,1.07-0.95,1.07H23.06c-1.82,0-3.33-0.61-4.55-1.83c-1.22-1.22-1.84-2.74-1.84-4.56V40.1c0-0.24,0.12-0.47,0.37-0.71
			c0.25-0.24,0.5-0.36,0.75-0.36c0.33,0,0.6,0.12,0.81,0.36c0.21,0.24,0.31,0.47,0.31,0.71v41.65c0,1.1,0.43,2.09,1.29,2.96
			c0.86,0.87,1.84,1.3,2.94,1.3H39.27z M72.34,82.51c0.67-1.54,1-3.21,1-5.03V55.95c0-1.81-0.34-3.49-1.01-5.03
			c-0.67-1.54-1.58-2.9-2.72-4.08c-1.14-1.18-2.48-2.11-4.02-2.78c-1.54-0.67-3.18-1.01-4.91-1.01c1.73,0,3.37-0.34,4.91-1.01
			c1.54-0.67,2.88-1.58,4.02-2.72c1.14-1.14,2.05-2.51,2.72-4.08c0.67-1.58,1.01-3.27,1.01-5.09c0-1.82-0.33-3.49-1-5.03
			c-0.67-1.54-1.57-2.9-2.71-4.08c-1.14-1.18-2.48-2.11-4.02-2.78c-1.54-0.67-3.17-1.01-4.9-1.01H23.04c-2.28,0-4.25,0.85-5.9,2.54
			c-1.65,1.69-2.48,3.69-2.48,5.98v55.96c0,2.37,0.81,4.38,2.42,6.04c1.61,1.66,3.6,2.48,5.96,2.48h37.67c1.73,0,3.36-0.34,4.9-1.01
			c1.53-0.67,2.87-1.58,4.02-2.72C70.76,85.39,71.67,84.05,72.34,82.51 M75.35,77.48c0,2.13-0.4,4.1-1.18,5.92
			c-0.79,1.81-1.83,3.39-3.14,4.73c-1.3,1.34-2.86,2.39-4.67,3.14c-1.82,0.75-3.71,1.12-5.68,1.12H22.94c-2.92,0-5.4-1.03-7.45-3.08
			c-2.05-2.05-3.08-4.58-3.08-7.57V25.78c0-1.42,0.27-2.78,0.83-4.08c0.55-1.3,1.32-2.45,2.31-3.43c0.99-0.99,2.11-1.76,3.37-2.31
			c1.26-0.55,2.6-0.83,4.02-0.83h37.74c1.97,0,3.86,0.39,5.68,1.18c1.81,0.79,3.37,1.85,4.67,3.19c1.3,1.34,2.35,2.94,3.14,4.79
			c0.79,1.85,1.18,3.8,1.18,5.86c0,2.76-0.65,5.26-1.95,7.51c-1.3,2.25-3.06,4.04-5.26,5.38c2.21,1.34,3.96,3.14,5.26,5.38
			c1.3,2.25,1.95,4.75,1.95,7.51V77.48z M76.06,48.79c-1.03-2.25-2.45-4.16-4.26-5.74c1.81-1.58,3.23-3.47,4.26-5.68
			c1.02-2.21,1.54-4.61,1.54-7.22c0-2.37-0.44-4.6-1.3-6.69c-0.87-2.09-2.07-3.9-3.62-5.44c-1.54-1.54-3.34-2.76-5.39-3.67
			C65.23,13.45,63.06,13,60.77,13H22.96c-1.74,0-3.36,0.33-4.86,1.01c-1.5,0.67-2.83,1.6-3.97,2.78c-1.15,1.18-2.05,2.54-2.72,4.08
			c-0.67,1.54-1.01,3.18-1.01,4.91v55.96c0,1.73,0.33,3.39,1.01,4.97c0.67,1.58,1.56,2.94,2.67,4.08c1.11,1.14,2.43,2.05,3.97,2.72
			c1.54,0.67,3.18,1.01,4.92,1.01h37.81c2.29,0,4.46-0.46,6.52-1.36c2.05-0.91,3.85-2.13,5.39-3.67s2.75-3.33,3.62-5.38
			c0.87-2.05,1.3-4.26,1.3-6.63V55.95C77.6,53.43,77.09,51.04,76.06,48.79"/>
		<path class="st0" d="M46.01,56.07c0,1.18-0.95,2.13-2.13,2.13c-1.18,0-2.13-0.95-2.13-2.13v-0.24c0-1.18,0.95-2.13,2.13-2.13
			c1.18,0,2.13,0.95,2.13,2.13V56.07z"/>
		<path class="st0" d="M46.01,34.53c0,1.18-0.95,2.13-2.13,2.13c-1.18,0-2.13-0.95-2.13-2.13v-0.12c0-1.18,0.95-2.13,2.13-2.13
			c1.18,0,2.13,0.95,2.13,2.13V34.53z"/>
		<path class="st0" d="M110.25,21.4c-0.2,0.24-0.41,0.35-0.65,0.35h-5.32c-1.11,0-2.03,0.41-2.78,1.24c-0.75,0.83-1.12,1.8-1.12,2.9
			v47.68c0,0.79-0.32,1.18-0.95,1.18c-0.79,0-1.18-0.39-1.18-1.18V25.9c0-1.81,0.59-3.31,1.78-4.5c1.18-1.18,2.6-1.78,4.26-1.78
			h5.32c0.63,0,0.95,0.35,0.95,1.07C110.54,20.93,110.44,21.16,110.25,21.4 M118.29,20.1c-1.54-1.66-3.45-2.49-5.74-2.49h-8.28
			c-2.21,0-4.1,0.83-5.68,2.49c-1.58,1.66-2.37,3.63-2.37,5.92v55.73c0,2.37,0.79,4.4,2.37,6.09c1.58,1.7,3.47,2.54,5.68,2.54h8.28
			c2.29,0,4.2-0.85,5.74-2.54c1.54-1.69,2.31-3.73,2.31-6.09V26.02C120.6,23.73,119.83,21.76,118.29,20.1 M122.49,81.74
			c0,1.5-0.26,2.9-0.77,4.2c-0.51,1.3-1.22,2.43-2.13,3.37c-0.91,0.95-1.95,1.7-3.13,2.25c-1.18,0.55-2.48,0.83-3.91,0.83h-8.28
			c-2.76,0-5.11-1.02-7.04-3.08c-1.93-2.05-2.9-4.57-2.9-7.57V26.02c0-2.92,0.97-5.4,2.9-7.45c1.93-2.05,4.28-3.08,7.04-3.08h8.28
			c1.42,0,2.72,0.28,3.91,0.83c1.18,0.55,2.23,1.3,3.13,2.25c0.91,0.95,1.62,2.07,2.13,3.37c0.51,1.3,0.77,2.66,0.77,4.08V81.74z
			 M124.62,26.02c0-1.73-0.32-3.37-0.95-4.91c-0.63-1.54-1.5-2.9-2.6-4.08c-1.11-1.18-2.39-2.11-3.85-2.78
			c-1.46-0.67-3.02-1.01-4.67-1.01h-8.28c-1.66,0-3.24,0.34-4.73,1.01c-1.5,0.67-2.78,1.6-3.85,2.78c-1.06,1.18-1.91,2.54-2.54,4.08
			c-0.63,1.54-0.95,3.18-0.95,4.91v55.73c0,1.82,0.32,3.49,0.95,5.03c0.63,1.54,1.48,2.88,2.54,4.02c1.07,1.14,2.35,2.05,3.85,2.72
			c1.5,0.67,3.08,1.01,4.73,1.01h8.28c1.66,0,3.21-0.34,4.67-1.01c1.46-0.67,2.74-1.58,3.85-2.72c1.1-1.14,1.97-2.48,2.6-4.02
			c0.63-1.54,0.95-3.21,0.95-5.03V26.02z"/>
		<path class="st1" d="M82.83,94.52c2.89,0,5.23-2.34,5.23-5.23s-2.34-5.23-5.23-5.23c-2.89,0-5.23,2.34-5.23,5.23
			S79.94,94.52,82.83,94.52"/>
		<path class="st1" d="M133.99,94.52c2.89,0,5.23-2.34,5.23-5.23s-2.34-5.23-5.23-5.23c-2.89,0-5.23,2.34-5.23,5.23
			S131.1,94.52,133.99,94.52"/>
		<path class="st1" d="M212.37,94.52c2.89,0,5.23-2.34,5.23-5.23s-2.34-5.23-5.23-5.23c-2.89,0-5.23,2.34-5.23,5.23
			S209.48,94.52,212.37,94.52"/>
		<path class="st0" d="M203.84,111.54h-12.48l-3.62,17.02h12.9l0.65-3.06h-9.42l0.92-4.38h8.27l0.64-2.96h-8.27l0.76-3.61h9.01
			L203.84,111.54z M180.53,111.98c-0.58-0.27-1.47-0.41-2.65-0.44h-8.35l-3.62,17.02h3.48l1.41-6.67h3.67
			c1.05,0,1.72,0.18,2.03,0.54c0.3,0.36,0.35,1.08,0.13,2.17l-0.31,1.58c-0.1,0.5-0.15,0.99-0.16,1.47c0,0.23,0.01,0.54,0.05,0.91
			h3.91l0.08-0.43c-0.29-0.21-0.44-0.53-0.44-0.97c0-0.28,0.08-0.8,0.24-1.58l0.24-1.14c0.26-1.19,0.28-2.08,0.08-2.66
			s-0.66-1.03-1.38-1.34c1.01-0.32,1.8-0.88,2.37-1.66c0.57-0.78,0.95-1.58,1.13-2.39c0.14-0.67,0.16-1.27,0.05-1.79
			c-0.1-0.52-0.29-1-0.57-1.43C181.58,112.65,181.12,112.25,180.53,111.98 M176.5,114.5c0.77,0,1.33,0.1,1.67,0.3
			c0.61,0.35,0.81,1.05,0.59,2.08c-0.21,0.95-0.7,1.59-1.48,1.92c-0.44,0.18-1.06,0.28-1.86,0.28h-4.03l0.97-4.57H176.5z
			 M145.41,122c-0.38,1.81-0.4,3.22-0.06,4.23c0.66,1.85,2.47,2.77,5.42,2.77c2.95,0,5.14-0.92,6.58-2.77
			c0.78-1.01,1.36-2.42,1.74-4.23l2.23-10.46h-3.62L155.48,122c-0.25,1.17-0.57,2.02-0.96,2.56c-0.63,0.95-1.67,1.43-3.11,1.43
			c-1.45,0-2.29-0.48-2.52-1.43c-0.16-0.54-0.12-1.39,0.13-2.56l2.23-10.46h-3.61L145.41,122z M127.04,111.54l-0.65,3.01h5.12
			l-2.97,14.01h3.58l2.97-14.01h5.09l0.65-3.01H127.04z M120.42,111.54h-3.53l-3.62,17.02h3.53L120.42,111.54z M91.68,128.56H95
			l2.56-12.09l4.39,12.09h3.56l3.62-17.02h-3.31l-2.53,11.88l-4.25-11.88H95.3L91.68,128.56z M84.63,111.98
			c-0.58-0.27-1.47-0.41-2.66-0.44h-8.35l-3.62,17.02h3.48l1.41-6.67h3.67c1.05,0,1.72,0.18,2.03,0.54c0.3,0.36,0.35,1.08,0.13,2.17
			l-0.31,1.58c-0.1,0.5-0.15,0.99-0.16,1.47c0,0.23,0.02,0.54,0.05,0.91h3.91l0.08-0.43c-0.29-0.21-0.44-0.53-0.44-0.97
			c0-0.28,0.08-0.8,0.24-1.58l0.24-1.14c0.25-1.19,0.28-2.08,0.07-2.66c-0.2-0.58-0.66-1.03-1.38-1.34c1.01-0.32,1.8-0.88,2.37-1.66
			c0.57-0.78,0.95-1.58,1.13-2.39c0.14-0.67,0.16-1.27,0.05-1.79c-0.1-0.52-0.29-1-0.57-1.43
			C85.68,112.65,85.22,112.25,84.63,111.98 M80.6,114.5c0.77,0,1.33,0.1,1.67,0.3c0.61,0.35,0.8,1.05,0.59,2.08
			c-0.21,0.95-0.7,1.59-1.48,1.92c-0.44,0.18-1.06,0.28-1.86,0.28H75.5l0.97-4.57H80.6z M49.51,122c-0.39,1.81-0.41,3.22-0.06,4.23
			c0.66,1.85,2.47,2.77,5.42,2.77c2.95,0,5.14-0.92,6.58-2.77c0.78-1.01,1.36-2.42,1.74-4.23l2.23-10.46h-3.61L59.58,122
			c-0.25,1.17-0.57,2.02-0.96,2.56c-0.63,0.95-1.67,1.43-3.11,1.43c-1.45,0-2.29-0.48-2.52-1.43c-0.16-0.54-0.12-1.39,0.13-2.56
			l2.23-10.46h-3.62L49.51,122z M28.95,128.56h3.53l1.51-7.14h7.47l0.62-2.96h-7.47l0.83-3.91h8.53l0.64-2.99H32.55L28.95,128.56z"
			/>
	</g>
</g>
</svg>
