<?xml version="1.0" encoding="utf-8"?>
<!-- Generator: Adobe Illustrator 24.2.0, SVG Export Plug-In . SVG Version: 6.00 Build 0)  -->
<svg version="1.1" id="Livello_1" xmlns="http://www.w3.org/2000/svg" xmlns:xlink="http://www.w3.org/1999/xlink" x="0px" y="0px"
	 viewBox="0 0 86 110" style="enable-background:new 0 0 86 110;" xml:space="preserve">
<style type="text/css">
	.st0{clip-path:url(#SVGID_2_);fill:#010101;}
	.st1{clip-path:url(#SVGID_4_);fill:#010101;}
	.st2{clip-path:url(#SVGID_6_);fill:#FFFFFF;}
</style>
<g>
	<g>
		<g>
			<defs>
				<rect id="SVGID_1_" y="12" width="86" height="86"/>
			</defs>
			<clipPath id="SVGID_2_">
				<use xlink:href="#SVGID_1_"  style="overflow:visible;"/>
			</clipPath>
			<path class="st0" d="M83.1,55c0,22.2-18,40.1-40.1,40.1S2.9,77.2,2.9,55s18-40.1,40.1-40.1S83.1,32.9,83.1,55 M86,55
				c0-23.8-19.2-43-43-43S0,31.2,0,55s19.2,43,43,43S86,78.8,86,55"/>
		</g>
	</g>
	<g>
		<g>
			<defs>
				<rect id="SVGID_3_" y="12" width="86" height="86"/>
			</defs>
			<clipPath id="SVGID_4_">
				<use xlink:href="#SVGID_3_"  style="overflow:visible;"/>
			</clipPath>
			<path class="st1" d="M43,92.3c20.6,0,37.3-16.7,37.3-37.3S63.6,17.7,43,17.7S5.7,34.4,5.7,55S22.4,92.3,43,92.3"/>
		</g>
	</g>
	<g>
		<g>
			<defs>
				<rect id="SVGID_5_" y="12" width="86" height="86"/>
			</defs>
			<clipPath id="SVGID_6_">
				<use xlink:href="#SVGID_5_"  style="overflow:visible;"/>
			</clipPath>
			<path class="st2" d="M71.7,55L71.7,55c0-15.8-12.8-28.7-28.7-28.7c-0.8,0-1.4,0.6-1.4,1.4c0,0.8,0.6,1.5,1.4,1.5
				c14.2,0,25.8,11.6,25.8,25.8c0,0.8,0.6,1.4,1.4,1.4S71.7,55.8,71.7,55z"/>
		</g>
	</g>
</g>
</svg>
