<?xml version="1.0" encoding="utf-8"?>
<!-- Generator: Adobe Illustrator 24.2.0, SVG Export Plug-In . SVG Version: 6.00 Build 0)  -->
<svg version="1.1" id="Livello_1" xmlns="http://www.w3.org/2000/svg" xmlns:xlink="http://www.w3.org/1999/xlink" x="0px" y="0px"
	 viewBox="0 0 570 142" style="enable-background:new 0 0 570 142;" xml:space="preserve">
<style type="text/css">
	.st0{clip-path:url(#SVGID_2_);fill:#010101;}
	.st1{fill:#010101;}
	.st2{clip-path:url(#SVGID_4_);fill:#010101;}
</style>
<g>
	<g>
		<defs>
			<rect id="SVGID_1_" y="44.96" width="570" height="52.07"/>
		</defs>
		<clipPath id="SVGID_2_">
			<use xlink:href="#SVGID_1_"  style="overflow:visible;"/>
		</clipPath>
		<path class="st0" d="M310.3,63.16c0,2.16-0.73,3.88-2.19,5.18c-1.46,1.29-3.56,1.94-6.29,1.94H290.6V55.82h11
			c2.73,0,4.86,0.6,6.4,1.8c1.53,1.2,2.3,3,2.3,5.39V63.16z M319.51,71c1.32-2.31,2.01-5.1,2.01-8.41v-0.14
			c0-2.76-0.48-5.18-1.4-7.3c-0.83-1.9-2.02-3.54-3.59-4.93c-3.33-2.92-7.99-4.39-13.99-4.39h-23.01v9.31V71h-4.79v15.82h2.4v9.35
			h11.08v-9.35h-2.4v-6.76h8.7l4.53,6.76h2.4l6.26,9.35h12.94l-6.39-9.35h-2.4l-5.9-8.63c3.21-1.2,5.81-3.08,7.8-5.65
			c0.37-0.48,0.68-1.01,0.98-1.55H319.51z M371.22,71h-4.79v0.14c0,2.16-0.37,4.18-1.11,6.08c-0.74,1.9-1.77,3.56-3.09,5
			s-2.91,2.57-4.78,3.38c-1.87,0.82-3.91,1.22-6.11,1.22c-2.25,0-4.3-0.42-6.15-1.26c-1.85-0.84-3.45-1.98-4.82-3.41
			c-1.37-1.44-2.42-3.12-3.16-5.04c-0.74-1.92-1.11-3.95-1.11-6.11h4.79v-0.14c0-2.16,0.37-4.19,1.11-6.08
			c0.74-1.89,1.77-3.56,3.09-5c1.32-1.44,2.9-2.57,4.75-3.38c1.85-0.82,3.9-1.22,6.15-1.22c2.2,0,4.24,0.42,6.11,1.26
			c1.87,0.84,3.49,1.98,4.85,3.42c1.37,1.44,2.42,3.12,3.16,5.03C370.85,66.8,371.22,68.84,371.22,71 M378,71h4.79v-0.14
			c0-3.6-0.66-6.97-1.98-10.11c-0.86-2.05-1.97-3.91-3.28-5.61c-0.7-0.91-1.43-1.78-2.26-2.59c-2.37-2.33-5.19-4.17-8.45-5.54
			c-3.26-1.37-6.83-2.05-10.72-2.05c-3.88,0-7.47,0.68-10.75,2.05c-3.28,1.37-6.11,3.24-8.49,5.61c-0.79,0.79-1.5,1.64-2.18,2.52
			c-1.35,1.75-2.5,3.66-3.39,5.75c-1.34,3.14-2.02,6.51-2.02,10.1h-4.79v0.14c0,3.6,0.66,6.96,1.98,10.11
			c0.85,2.03,1.95,3.88,3.25,5.57h2.4c0.7,0.92,1.45,1.81,2.29,2.63c2.37,2.33,5.19,4.17,8.45,5.54c3.26,1.37,6.83,2.05,10.72,2.05
			c3.88,0,7.47-0.68,10.75-2.05c3.28-1.37,6.11-3.24,8.49-5.61c0.8-0.8,1.52-1.66,2.21-2.55h-2.4c1.34-1.74,2.48-3.64,3.37-5.72
			C377.33,77.96,378,74.6,378,71 M421.66,76.83L417.22,71h4.43V76.83z M432.59,71h4.79V55.14v-9.31h-10.93v9.31V71h-4.43
			l-12.07-15.86l-7.09-9.31h-10.21v9.31V71h-4.79v15.82h2.4v9.35h10.93v-9.35h-2.4V71h4.79v-6.83l5.2,6.83h-4.79l12.05,15.82h2.4
			l7.12,9.35h9.42v-9.35h-2.4V71z M456.25,71h4.79V55.14v-9.31h-11.08v9.31V71h-4.79v15.82h2.4v9.35h11.08v-9.35h-2.4V71z
			 M505.93,55.14l2.51-3.63c-2.59-2.06-5.43-3.64-8.52-4.75c-3.09-1.1-6.48-1.65-10.17-1.65c-2.59,0-4.96,0.36-7.11,1.08
			c-2.15,0.72-4,1.75-5.55,3.09c-1.55,1.34-2.75,2.93-3.61,4.78c-0.16,0.35-0.29,0.71-0.42,1.08c-0.56,1.57-0.86,3.28-0.86,5.14
			v0.14c0,2.49,0.4,4.58,1.19,6.26c0.79,1.68,1.91,3.08,3.35,4.21c0.05,0.04,0.12,0.07,0.17,0.11h-4.79c1.41,1.08,3.1,1.99,5.1,2.73
			c2.07,0.77,4.37,1.46,6.92,2.09c2.11,0.53,3.83,1.03,5.15,1.51c1.32,0.48,2.36,0.96,3.1,1.44c0.75,0.48,1.25,0.99,1.52,1.55
			c0.26,0.55,0.4,1.19,0.4,1.91v0.14c0,1.49-0.64,2.65-1.91,3.49c-0.67,0.44-1.5,0.76-2.45,0.97h2.4c-0.86,0.19-1.82,0.29-2.91,0.29
			c-1.15,0-2.25-0.11-3.33-0.29h-2.4c-1.62-0.26-3.17-0.7-4.62-1.37c-2.42-1.1-4.78-2.59-7.08-4.46l-4.86,5.83h2.4l-1.68,2.02
			c3.02,2.73,6.38,4.76,10.07,6.07c3.69,1.32,7.46,1.98,11.29,1.98c2.73,0,5.22-0.35,7.47-1.04c2.25-0.7,4.18-1.7,5.8-3.02
			c1.62-1.32,2.88-2.95,3.79-4.89c0.17-0.36,0.3-0.74,0.44-1.12h-2.4c0.6-1.67,0.92-3.5,0.92-5.54v-0.14c0-2.2-0.35-4.1-1.05-5.68
			c-0.7-1.58-1.73-2.96-3.1-4.14c-0.13-0.12-0.31-0.21-0.45-0.32h4.79c-1.29-1.03-2.8-1.94-4.59-2.7c-1.99-0.84-4.27-1.59-6.82-2.27
			c-2.16-0.57-3.96-1.08-5.37-1.51c-1.42-0.43-2.54-0.89-3.36-1.37c-0.82-0.48-1.38-1.02-1.69-1.62c-0.31-0.6-0.47-1.3-0.47-2.12
			v-0.14c0-1.25,0.54-2.29,1.62-3.13c0.61-0.47,1.41-0.8,2.37-1.01c0.73-0.16,1.55-0.25,2.48-0.25c0.91,0,1.81,0.1,2.71,0.25
			c1.25,0.22,2.51,0.56,3.76,1.08c2.16,0.89,4.36,2.1,6.62,3.63L505.93,55.14z M570,71V55.14v-9.31h-11.94l-5.79,9.31l-7.44,11.97
			l-7.44-11.97l-5.79-9.31h-11.94v9.31V71h-4.79v15.82h2.4v9.35h10.93v-9.35h-2.4V71h4.79v-7.48l4.93,7.48h-4.79l9.1,13.81h0.29
			L549.2,71H554l5.07-7.7V71h-4.79v15.82h2.4v9.35h10.93v-9.35h-2.4V71H570z"/>
	</g>
	<polygon class="st1" points="259.24,44.96 259.24,65.57 238.82,65.57 238.82,44.96 227.74,44.96 227.74,71 223.74,71 223.74,86.68 
		227.74,86.68 227.74,97.04 238.82,97.04 238.82,86.68 234.82,86.68 234.82,76.13 255.24,76.13 255.24,86.68 259.24,86.68 
		259.24,97.04 270.32,97.04 270.32,86.68 266.32,86.68 266.32,71 270.32,71 270.32,44.96 	"/>
	<g>
		<defs>
			<rect id="SVGID_3_" y="44.96" width="570" height="52.07"/>
		</defs>
		<clipPath id="SVGID_4_">
			<use xlink:href="#SVGID_3_"  style="overflow:visible;"/>
		</clipPath>
		<path class="st2" d="M33.94,71h-4.79l1.68,4.1H17.45l1.68-4.1h4.79l5.01-12.23L33.94,71z M41.78,96.17h11.58l-3.98-9.35h-2.4
			L40.26,71h4.79L38.3,55.14l-4.12-9.68H23.97l-4.12,9.68L13.11,71H8.31L1.58,86.82h2.4L0,96.17h11.29l3.81-9.35h-2.4l0.79-1.94
			h21.29l0.79,1.94h2.4L41.78,96.17z M92.54,76.82L88.1,71h4.43V76.82z M103.47,71h4.79V55.14v-9.31H97.33v9.31V71H92.9L80.83,55.14
			l-7.09-9.31H63.53v9.31V71h-4.79v15.82h2.4v9.35h10.93v-9.35h-2.4V71h4.79v-6.83l5.2,6.83h-4.79l12.05,15.82h2.4l7.12,9.35h9.42
			v-9.35h-2.4V71z M147.57,71h-4.79l1.68,4.1h-13.38l1.68-4.1h4.79l5.01-12.23L147.57,71z M155.41,96.17h11.58l-3.98-9.35h-2.4
			L153.88,71h4.79l-6.75-15.86l-4.12-9.68H137.6l-4.12,9.68L126.74,71h-4.79l-6.73,15.82h2.4l-3.98,9.35h11.29l3.81-9.35h-2.4
			l0.79-1.94h21.29l0.79,1.94h2.4L155.41,96.17z M218.94,55.14l2.09-2.41c-1.15-1.15-2.4-2.21-3.74-3.17
			c-1.34-0.96-2.8-1.77-4.38-2.44c-1.58-0.67-3.34-1.2-5.29-1.58c-1.94-0.38-4.09-0.58-6.44-0.58c-3.88,0-7.43,0.68-10.64,2.05
			c-3.21,1.37-5.97,3.24-8.27,5.61c-0.77,0.79-1.46,1.64-2.11,2.52c-1.31,1.75-2.42,3.66-3.28,5.75c-1.29,3.14-1.94,6.51-1.94,10.1
			h-4.79v0.14c0,3.6,0.65,6.98,1.94,10.14c0.83,2.02,1.88,3.85,3.13,5.54h2.4c0.7,0.95,1.44,1.86,2.27,2.7
			c2.3,2.33,5.03,4.16,8.2,5.5c3.16,1.34,6.59,2.02,10.28,2.02c2.45,0,4.65-0.21,6.62-0.61c1.97-0.41,3.78-1.01,5.43-1.8
			c1.65-0.79,3.18-1.74,4.57-2.84c1.39-1.1,2.74-2.35,4.03-3.74l-1.21-1.23h-2.4l-5.84-5.9c-1.97,1.82-3.94,3.26-5.93,4.32
			c-1.99,1.05-4.43,1.58-7.3,1.58c-2.16,0-4.13-0.42-5.93-1.26c-1.8-0.84-3.33-1.98-4.6-3.42c-1.27-1.44-2.27-3.12-2.99-5.04
			c-0.72-1.92-1.08-3.95-1.08-6.11h4.79v-0.14c0-2.16,0.36-4.18,1.08-6.08c0.72-1.89,1.73-3.56,3.02-5
			c1.29-1.44,2.84-2.57,4.64-3.38c1.8-0.82,3.75-1.22,5.86-1.22c2.54,0,4.83,0.5,6.87,1.51c2.04,1.01,4.04,2.4,6.01,4.17
			L218.94,55.14z"/>
	</g>
</g>
</svg>
