<?xml version="1.0" encoding="utf-8"?>
<!-- Generator: Adobe Illustrator 24.2.0, SVG Export Plug-In . SVG Version: 6.00 Build 0)  -->
<svg version="1.1" id="Livello_1" xmlns="http://www.w3.org/2000/svg" xmlns:xlink="http://www.w3.org/1999/xlink" x="0px" y="0px"
	 viewBox="0 0 86 110" style="enable-background:new 0 0 86 110;" xml:space="preserve">
<style type="text/css">
	.st0{fill:none;stroke:#000000;stroke-miterlimit:10;}
</style>
<g>
	<polygon points="14.3,69.3 0,69.3 0,83.7 14.3,83.7 14.3,98 28.7,98 28.7,83.7 28.7,69.3 	"/>
	<polygon points="43,12 43,26.3 57.3,26.3 71.7,26.3 71.7,40.7 71.7,55 86,55 86,12 	"/>
	<polygon points="0,12 0,26.3 14.3,26.3 14.3,40.7 14.3,55 28.7,55 43,55 43,69.3 43,83.7 57.3,83.7 71.7,83.7 71.7,98 86,98 
		86,69.3 71.7,69.3 57.3,69.3 57.3,55 57.3,40.7 43,40.7 28.7,40.7 28.7,26.3 28.7,12 	"/>
</g>
<rect y="12" class="st0" width="86" height="86"/>
</svg>
