<?xml version="1.0" encoding="utf-8"?>
<!-- Generator: Adobe Illustrator 24.2.0, SVG Export Plug-In . SVG Version: 6.00 Build 0)  -->
<svg version="1.1" id="Livello_1" xmlns="http://www.w3.org/2000/svg" xmlns:xlink="http://www.w3.org/1999/xlink" x="0px" y="0px"
	 viewBox="0 0 450 142" style="enable-background:new 0 0 450 142;" xml:space="preserve">
<style type="text/css">
	.st0{clip-path:url(#SVGID_4_);}
	.st1{clip-path:url(#SVGID_8_);}
</style>
<g>
	<path d="M213.39,95.24c0,8.14-4.18,15.27-10.49,19.45l-12.88-24.96l-12.92,24.93c-6.27-4.18-10.41-11.31-10.41-19.41
		c0-12.9,10.46-23.36,23.35-23.36C202.93,71.89,213.39,82.34,213.39,95.24 M172.97,135.9l17.02-33.53l16.95,33.53H172.97z
		 M219.64,95.24c0-16.35-13.25-29.61-29.61-29.61c-16.35,0-29.61,13.26-29.61,29.61c0,10.52,5.53,19.69,13.79,24.94L162.91,142H217
		l-11.24-21.77C214.08,114.99,219.64,105.8,219.64,95.24"/>
	<g>
		<defs>
			<path id="SVGID_1_" d="M189.99,102.37l16.95,33.53h-33.97L189.99,102.37z M166.68,95.24c0-12.9,10.45-23.35,23.35-23.35
				c12.9,0,23.36,10.45,23.36,23.35c0,8.14-4.18,15.27-10.49,19.45l-12.88-24.96l-12.92,24.93
				C170.82,110.47,166.68,103.35,166.68,95.24 M160.43,95.24c0,10.52,5.53,19.69,13.79,24.94L162.91,142H217l-11.24-21.77
				c8.32-5.24,13.89-14.44,13.89-24.99c0-16.35-13.25-29.61-29.61-29.61C173.68,65.64,160.43,78.89,160.43,95.24"/>
		</defs>
		<use xlink:href="#SVGID_1_"  style="overflow:visible;"/>
		<clipPath id="SVGID_2_">
			<use xlink:href="#SVGID_1_"  style="overflow:visible;"/>
		</clipPath>
	</g>
	<path d="M444.13,50.3c-1.61,1.02-3.34,1.92-5.21,2.68c-1.87,0.77-3.87,1.37-6.01,1.8c-2.14,0.43-4.39,0.65-6.74,0.65
		c-4.18,0-7.99-0.7-11.41-2.11c-3.42-1.4-6.34-3.34-8.77-5.82c-2.43-2.48-4.3-5.4-5.63-8.77c-1.33-3.37-1.99-7.02-1.99-10.95
		c0-3.78,0.68-7.35,2.03-10.72c1.35-3.37,3.25-6.32,5.7-8.84c2.45-2.53,5.37-4.53,8.77-6.01C418.28,0.74,421.99,0,426.02,0
		c2.35,0,4.48,0.17,6.39,0.5c1.91,0.33,3.68,0.8,5.32,1.42c1.63,0.61,3.18,1.37,4.63,2.26c1.45,0.89,2.87,1.93,4.25,3.1l-5.97,7.12
		c-1.02-0.87-2.07-1.66-3.14-2.37c-1.07-0.71-2.2-1.31-3.37-1.8c-1.17-0.48-2.46-0.87-3.86-1.15c-1.41-0.28-2.95-0.42-4.63-0.42
		c-2.45,0-4.74,0.5-6.85,1.5c-2.12,1-3.96,2.36-5.51,4.1c-1.56,1.74-2.78,3.76-3.68,6.06c-0.89,2.3-1.34,4.76-1.34,7.36
		c0,2.76,0.43,5.32,1.3,7.67c0.87,2.35,2.11,4.39,3.72,6.1c1.61,1.71,3.52,3.06,5.74,4.03c2.22,0.97,4.71,1.46,7.47,1.46
		c2.55,0,4.94-0.37,7.16-1.12c2.22-0.75,4.15-1.73,5.78-2.97V32.77h-13.71v-8.19h22.82v22.51C447.21,48.21,445.74,49.29,444.13,50.3
		 M377.63,0.92h9.34v53.6h-7.87l-29.49-38.13v38.13h-9.34V0.92h8.71l28.65,37.06V0.92z M325.88,54.52h-9.34V0.92h9.34V54.52z
		 M275.42,17.69c0.36,0.77,1.01,1.48,1.96,2.14c0.95,0.66,2.25,1.28,3.91,1.84c1.66,0.56,3.78,1.15,6.33,1.76
		c2.82,0.71,5.31,1.51,7.49,2.37c2.17,0.87,3.98,1.93,5.41,3.18c1.43,1.25,2.52,2.71,3.26,4.36c0.74,1.66,1.12,3.61,1.12,5.86
		c0,2.55-0.47,4.82-1.41,6.81c-0.94,1.99-2.24,3.68-3.91,5.05c-1.67,1.38-3.68,2.43-6.02,3.14c-2.34,0.71-4.92,1.07-7.73,1.07
		c-4.14,0-8.09-0.7-11.87-2.11c-3.78-1.4-7.27-3.56-10.49-6.47l5.67-6.74c2.6,2.25,5.23,3.97,7.88,5.17c2.65,1.2,5.67,1.8,9.03,1.8
		c2.91,0,5.22-0.61,6.93-1.84c1.71-1.22,2.56-2.88,2.56-4.98c0-0.97-0.17-1.84-0.5-2.6c-0.33-0.77-0.95-1.47-1.84-2.11
		c-0.9-0.64-2.13-1.24-3.68-1.8c-1.56-0.56-3.6-1.15-6.1-1.76c-2.87-0.66-5.41-1.4-7.64-2.22c-2.23-0.82-4.09-1.84-5.6-3.06
		c-1.51-1.23-2.66-2.71-3.45-4.44c-0.79-1.73-1.19-3.85-1.19-6.35c0-2.35,0.45-4.48,1.37-6.39c0.91-1.91,2.16-3.56,3.76-4.94
		c1.59-1.38,3.51-2.44,5.76-3.18c2.24-0.74,4.69-1.11,7.34-1.11c3.93,0,7.47,0.57,10.6,1.72c3.14,1.15,6.09,2.82,8.84,5.02
		l-5.05,7.12c-2.45-1.79-4.88-3.15-7.27-4.1c-2.4-0.95-4.83-1.42-7.27-1.42c-2.76,0-4.9,0.63-6.43,1.88
		c-1.53,1.25-2.3,2.77-2.3,4.56C274.88,16,275.06,16.92,275.42,17.69 M252.6,54.52h-9.34V0.92h9.34V54.52z M218.67,11.69
		c-1.95-1.51-4.69-2.27-8.22-2.27h-13.75v18.07h13.82c3.38,0,6.07-0.82,8.06-2.46c2-1.64,3-3.84,3-6.61
		C221.59,15.44,220.62,13.2,218.67,11.69 M221.75,54.52l-13.21-18.68h-11.83v18.68h-9.34V0.92h23.89c3.06,0,5.83,0.4,8.31,1.19
		c2.48,0.79,4.57,1.91,6.28,3.37c1.71,1.45,3.02,3.24,3.94,5.36c0.92,2.12,1.38,4.48,1.38,7.08c0,2.25-0.32,4.25-0.96,6.01
		c-0.64,1.76-1.52,3.32-2.64,4.67c-1.12,1.35-2.46,2.5-4.02,3.45c-1.56,0.95-3.28,1.67-5.17,2.18l14.47,20.29H221.75z M152.76,9.42
		h-30.32V23.2h26.87v8.5h-26.87v14.32h30.7v8.5H113.1V0.92h39.66V9.42z M64.25,31.93v22.59h-9.34V0.92h9.34V23.2h25.73V0.92h9.34
		v53.6h-9.34V31.93H64.25z M27.96,54.52h-9.49V9.65h-17V0.92h43.49v8.73h-17V54.52z"/>
	<g>
		<defs>
			<path id="SVGID_3_" d="M1.47,0.92v8.73h17v44.87h9.5V9.65h17V0.92H1.47z M89.98,0.92V23.2H64.25V0.92h-9.34v53.6h9.34V31.93
				h25.73v22.59h9.34V0.92H89.98z M113.1,0.92v53.6h40.04v-8.5h-30.7V31.7h26.88v-8.5h-26.88V9.42h30.32v-8.5H113.1z M196.71,9.42
				h13.75c3.53,0,6.27,0.76,8.22,2.27c1.95,1.51,2.92,3.75,2.92,6.73c0,2.77-1,4.97-3,6.61c-2,1.64-4.68,2.46-8.06,2.46h-13.82V9.42
				z M187.37,0.92v53.6h9.34V35.83h11.83l13.21,18.68h11.11l-14.47-20.29c1.89-0.51,3.61-1.24,5.17-2.18
				c1.55-0.94,2.89-2.09,4.02-3.45c1.12-1.35,2-2.91,2.64-4.67c0.64-1.76,0.96-3.76,0.96-6.01c0-2.61-0.46-4.97-1.38-7.08
				c-0.92-2.12-2.23-3.91-3.94-5.36c-1.71-1.45-3.8-2.58-6.28-3.37c-2.47-0.79-5.24-1.19-8.31-1.19H187.37z M243.26,54.51h9.34V0.92
				h-9.34V54.51z M316.53,54.51h9.34V0.92h-9.34V54.51z M377.63,0.92v37.06L348.98,0.92h-8.71v53.6h9.34V16.39l29.49,38.13h7.87
				V0.92H377.63z M276.42,1.27c-2.24,0.74-4.16,1.8-5.75,3.18c-1.6,1.38-2.85,3.03-3.76,4.94s-1.37,4.04-1.37,6.39
				c0,2.5,0.4,4.62,1.19,6.35s1.95,3.22,3.46,4.44c1.51,1.23,3.38,2.25,5.6,3.06c2.22,0.82,4.77,1.56,7.64,2.22
				c2.51,0.61,4.54,1.2,6.11,1.76c1.56,0.57,2.79,1.17,3.68,1.8c0.89,0.64,1.51,1.34,1.84,2.1c0.33,0.77,0.5,1.64,0.5,2.61
				c0,2.09-0.86,3.75-2.56,4.98c-1.71,1.22-4.02,1.83-6.93,1.83c-3.37,0-6.38-0.6-9.03-1.8c-2.66-1.2-5.28-2.92-7.89-5.17
				l-5.67,6.74c3.22,2.91,6.71,5.07,10.49,6.47c3.78,1.4,7.73,2.11,11.87,2.11c2.81,0,5.38-0.36,7.73-1.07
				c2.34-0.71,4.35-1.76,6.02-3.14c1.67-1.38,2.98-3.06,3.91-5.05c0.93-1.99,1.4-4.26,1.4-6.81c0-2.25-0.37-4.2-1.11-5.86
				c-0.75-1.66-1.83-3.11-3.26-4.36c-1.43-1.25-3.24-2.31-5.41-3.18c-2.18-0.87-4.67-1.66-7.48-2.37c-2.56-0.61-4.67-1.2-6.33-1.76
				c-1.66-0.56-2.97-1.17-3.92-1.84c-0.95-0.66-1.6-1.38-1.96-2.14c-0.36-0.77-0.53-1.69-0.53-2.76c0-1.79,0.77-3.3,2.3-4.56
				c1.53-1.25,3.67-1.88,6.43-1.88c2.45,0,4.87,0.47,7.27,1.42c2.4,0.95,4.83,2.31,7.27,4.1l5.05-7.12
				c-2.75-2.19-5.7-3.87-8.84-5.02c-3.14-1.15-6.68-1.72-10.61-1.72C281.11,0.15,278.66,0.52,276.42,1.27 M414.88,2.22
				c-3.39,1.48-6.32,3.48-8.77,6.01c-2.45,2.53-4.35,5.47-5.7,8.84c-1.35,3.37-2.03,6.94-2.03,10.72c0,3.93,0.66,7.58,1.99,10.95
				c1.33,3.37,3.2,6.29,5.63,8.77c2.42,2.48,5.35,4.42,8.77,5.82c3.42,1.4,7.22,2.11,11.41,2.11c2.35,0,4.59-0.22,6.74-0.65
				c2.14-0.43,4.15-1.03,6.01-1.8c1.86-0.77,3.6-1.66,5.21-2.68c1.61-1.02,3.08-2.09,4.4-3.22V24.58h-22.82v8.19h13.71v10.09
				c-1.63,1.23-3.56,2.22-5.78,2.96c-2.22,0.75-4.61,1.12-7.16,1.12c-2.75,0-5.24-0.48-7.46-1.46c-2.22-0.97-4.14-2.31-5.74-4.03
				c-1.61-1.71-2.85-3.75-3.72-6.1c-0.87-2.35-1.3-4.91-1.3-7.67c0-2.61,0.45-5.06,1.34-7.36c0.89-2.3,2.12-4.32,3.67-6.06
				c1.56-1.74,3.39-3.11,5.51-4.11c2.12-1,4.4-1.5,6.85-1.5c1.68,0,3.23,0.14,4.63,0.42c1.4,0.28,2.69,0.67,3.87,1.15
				c1.17,0.49,2.3,1.08,3.37,1.8c1.07,0.72,2.12,1.51,3.14,2.37l5.97-7.12c-1.38-1.17-2.8-2.21-4.25-3.1
				c-1.46-0.89-3-1.65-4.63-2.26c-1.64-0.61-3.41-1.08-5.32-1.42c-1.92-0.33-4.04-0.5-6.39-0.5C421.99,0,418.28,0.74,414.88,2.22"/>
		</defs>
		<use xlink:href="#SVGID_3_"  style="overflow:visible;"/>
		<clipPath id="SVGID_4_">
			<use xlink:href="#SVGID_3_"  style="overflow:visible;"/>
		</clipPath>
		<g class="st0">
			<defs>
				
					<rect id="SVGID_5_" x="3.37" y="-83.33" transform="matrix(0.9304 -0.3665 0.3665 0.9304 5.4975 84.3915)" width="443.26" height="222.1"/>
			</defs>
			<use xlink:href="#SVGID_5_"  style="overflow:visible;"/>
			<clipPath id="SVGID_6_">
				<use xlink:href="#SVGID_5_"  style="overflow:visible;"/>
			</clipPath>
		</g>
	</g>
	<path d="M320.2,99.32c-2.1-1.61-4.92-2.42-8.45-2.42h-10.99v19.37h10.99c3.59,0,6.41-0.88,8.49-2.65c2.07-1.77,3.11-4.11,3.11-7.04
		C323.35,103.36,322.3,100.94,320.2,99.32 M331.23,114.36c-1.13,2.3-2.66,4.21-4.6,5.74c-1.94,1.53-4.22,2.69-6.83,3.48
		c-2.61,0.79-5.4,1.19-8.37,1.19h-10.67V142h-9.34V88.4h21.13c3.11,0,5.93,0.42,8.46,1.26c2.53,0.84,4.67,2.06,6.43,3.64
		s3.11,3.47,4.06,5.66s1.42,4.67,1.42,7.43C332.92,109.41,332.36,112.06,331.23,114.36 M251.38,128.83h-0.31l-16.77-25.12V142h-9.34
		V88.4h10.03l16.31,25.34l16.31-25.34h10.03V142h-9.34v-38.44L251.38,128.83z M117.08,88.4h9.34v45.1h28.18v8.5h-37.52V88.4z"/>
	<g>
		<defs>
			<path id="SVGID_7_" d="M117.08,88.4V142h37.52v-8.5h-28.17V88.4H117.08z M267.61,88.4l-16.31,25.34L234.99,88.4h-10.03V142h9.34
				v-38.28l16.77,25.12h0.31l16.92-25.27V142h9.34V88.4H267.61z M300.76,96.9h10.99c3.53,0,6.35,0.81,8.45,2.42
				c2.1,1.61,3.15,4.04,3.15,7.26c0,2.92-1.04,5.26-3.11,7.04c-2.08,1.77-4.91,2.65-8.49,2.65h-10.99V96.9z M291.42,88.4V142h9.34
				v-17.23h10.67c2.97,0,5.76-0.4,8.37-1.19c2.61-0.79,4.89-1.95,6.83-3.48c1.94-1.53,3.48-3.45,4.6-5.75
				c1.13-2.3,1.69-4.95,1.69-7.96c0-2.76-0.47-5.23-1.42-7.43c-0.94-2.19-2.3-4.08-4.06-5.66c-1.76-1.58-3.9-2.8-6.43-3.64
				c-2.53-0.84-5.34-1.26-8.46-1.26H291.42z"/>
		</defs>
		<use xlink:href="#SVGID_7_"  style="overflow:visible;"/>
		<clipPath id="SVGID_8_">
			<use xlink:href="#SVGID_7_"  style="overflow:visible;"/>
		</clipPath>
		<g class="st1">
			<defs>
				<rect id="SVGID_9_" x="114.46" y="85.61" width="221.32" height="59.18"/>
			</defs>
			<use xlink:href="#SVGID_9_"  style="overflow:visible;"/>
			<clipPath id="SVGID_10_">
				<use xlink:href="#SVGID_9_"  style="overflow:visible;"/>
			</clipPath>
		</g>
	</g>
</g>
</svg>
